STARTFONT 2.1
COMMENT
COMMENT Converted from OpenType font "BeVietnam-Italic.ttf" by "otf2bdf 3.0".
COMMENT
FONT -FreeType-Be Vietnam-Medium-I-Normal--14-100-100-100-P-73-ISO10646-1
SIZE 10 100 100
FONTBOUNDINGBOX 20 19 -4 -4
STARTPROPERTIES 19
FOUNDRY "FreeType"
FAMILY_NAME "Be Vietnam"
WEIGHT_NAME "Medium"
SLANT "I"
SETWIDTH_NAME "Normal"
ADD_STYLE_NAME ""
PIXEL_SIZE 14
POINT_SIZE 100
RESOLUTION_X 100
RESOLUTION_Y 100
SPACING "P"
AVERAGE_WIDTH 73
CHARSET_REGISTRY "ISO10646"
CHARSET_ENCODING "1"
FONT_ASCENT 16
FONT_DESCENT 3
COPYRIGHT "Copyright 2019 The Bevietnam Project Authors (https://github.com/bettergui/beVietnam)"
_OTF_FONTFILE "BeVietnam-Italic.ttf"
_OTF_PSNAME "BeVietnam-Italic"
ENDPROPERTIES
CHARS 445
STARTCHAR 000D
ENCODING 13
SWIDTH 576 0
DWIDTH 8 0
BBX 0 0 0 0
BITMAP
ENDCHAR
STARTCHAR 0020
ENCODING 32
SWIDTH 216 0
DWIDTH 3 0
BBX 0 0 0 0
BITMAP
ENDCHAR
STARTCHAR 0021
ENCODING 33
SWIDTH 216 0
DWIDTH 3 0
BBX 3 10 1 0
BITMAP
20
60
60
40
40
40
40
00
00
C0
ENDCHAR
STARTCHAR 0022
ENCODING 34
SWIDTH 504 0
DWIDTH 7 0
BBX 5 3 2 7
BITMAP
58
90
D8
ENDCHAR
STARTCHAR 0023
ENCODING 35
SWIDTH 864 0
DWIDTH 12 0
BBX 10 10 2 0
BITMAP
0880
0880
0900
7FC0
1300
3200
FF80
2400
4400
4400
ENDCHAR
STARTCHAR 0024
ENCODING 36
SWIDTH 504 0
DWIDTH 7 0
BBX 7 11 1 0
BITMAP
0C
3E
4A
50
70
1C
12
92
D4
78
20
ENDCHAR
STARTCHAR 0025
ENCODING 37
SWIDTH 792 0
DWIDTH 11 0
BBX 9 10 2 0
BITMAP
6100
9100
A200
E400
0C00
0800
1180
2280
2280
4380
ENDCHAR
STARTCHAR 0026
ENCODING 38
SWIDTH 576 0
DWIDTH 8 0
BBX 8 10 1 0
BITMAP
0E
13
33
30
10
39
4E
84
CA
73
ENDCHAR
STARTCHAR 0027
ENCODING 39
SWIDTH 288 0
DWIDTH 4 0
BBX 2 3 2 7
BITMAP
C0
40
80
ENDCHAR
STARTCHAR 0028
ENCODING 40
SWIDTH 432 0
DWIDTH 6 0
BBX 5 14 2 -3
BITMAP
08
10
20
20
40
40
C0
80
80
80
80
40
40
20
ENDCHAR
STARTCHAR 0029
ENCODING 41
SWIDTH 432 0
DWIDTH 6 0
BBX 5 14 1 -3
BITMAP
20
10
10
18
08
08
18
18
10
10
20
20
40
80
ENDCHAR
STARTCHAR 002A
ENCODING 42
SWIDTH 432 0
DWIDTH 6 0
BBX 4 5 3 6
BITMAP
20
A0
70
F0
40
ENDCHAR
STARTCHAR 002B
ENCODING 43
SWIDTH 576 0
DWIDTH 8 0
BBX 6 5 2 2
BITMAP
10
20
FC
20
20
ENDCHAR
STARTCHAR 002C
ENCODING 44
SWIDTH 216 0
DWIDTH 3 0
BBX 2 3 1 -2
BITMAP
C0
40
80
ENDCHAR
STARTCHAR 002D
ENCODING 45
SWIDTH 576 0
DWIDTH 8 0
BBX 5 1 3 4
BITMAP
F8
ENDCHAR
STARTCHAR 002E
ENCODING 46
SWIDTH 216 0
DWIDTH 3 0
BBX 2 1 1 1
BITMAP
C0
ENDCHAR
STARTCHAR 002F
ENCODING 47
SWIDTH 504 0
DWIDTH 7 0
BBX 8 13 1 -2
BITMAP
01
02
02
04
08
08
10
10
20
60
40
80
80
ENDCHAR
STARTCHAR 0030
ENCODING 48
SWIDTH 576 0
DWIDTH 8 0
BBX 8 10 1 0
BITMAP
1E
22
63
43
43
C2
C2
C2
44
78
ENDCHAR
STARTCHAR 0031
ENCODING 49
SWIDTH 432 0
DWIDTH 6 0
BBX 5 10 1 0
BITMAP
08
38
28
18
10
10
10
10
10
F8
ENDCHAR
STARTCHAR 0032
ENCODING 50
SWIDTH 576 0
DWIDTH 8 0
BBX 8 10 1 0
BITMAP
1E
22
63
02
02
04
18
30
40
FC
ENDCHAR
STARTCHAR 0033
ENCODING 51
SWIDTH 576 0
DWIDTH 8 0
BBX 8 10 1 0
BITMAP
1E
22
03
02
1C
04
02
02
C4
78
ENDCHAR
STARTCHAR 0034
ENCODING 52
SWIDTH 576 0
DWIDTH 8 0
BBX 7 10 1 0
BITMAP
06
0E
0E
14
24
44
84
FE
0C
08
ENDCHAR
STARTCHAR 0035
ENCODING 53
SWIDTH 576 0
DWIDTH 8 0
BBX 8 10 1 0
BITMAP
3F
20
20
48
76
42
02
C2
44
78
ENDCHAR
STARTCHAR 0036
ENCODING 54
SWIDTH 576 0
DWIDTH 8 0
BBX 7 10 1 0
BITMAP
0C
08
10
20
7C
42
C2
82
C4
78
ENDCHAR
STARTCHAR 0037
ENCODING 55
SWIDTH 504 0
DWIDTH 7 0
BBX 6 10 2 0
BITMAP
FC
04
08
08
10
30
20
40
C0
80
ENDCHAR
STARTCHAR 0038
ENCODING 56
SWIDTH 576 0
DWIDTH 8 0
BBX 8 10 1 0
BITMAP
1E
23
63
62
36
6E
42
82
C6
7C
ENDCHAR
STARTCHAR 0039
ENCODING 57
SWIDTH 576 0
DWIDTH 8 0
BBX 7 10 2 0
BITMAP
38
44
86
86
84
DC
28
10
20
60
ENDCHAR
STARTCHAR 003A
ENCODING 58
SWIDTH 288 0
DWIDTH 4 0
BBX 2 7 1 0
BITMAP
C0
00
00
00
00
00
C0
ENDCHAR
STARTCHAR 003B
ENCODING 59
SWIDTH 288 0
DWIDTH 4 0
BBX 3 9 1 -2
BITMAP
60
00
00
00
00
00
C0
40
80
ENDCHAR
STARTCHAR 003C
ENCODING 60
SWIDTH 504 0
DWIDTH 7 0
BBX 6 6 2 1
BITMAP
04
18
60
80
60
18
ENDCHAR
STARTCHAR 003D
ENCODING 61
SWIDTH 648 0
DWIDTH 9 0
BBX 7 4 2 2
BITMAP
7E
00
00
FE
ENDCHAR
STARTCHAR 003E
ENCODING 62
SWIDTH 504 0
DWIDTH 7 0
BBX 5 5 2 2
BITMAP
60
30
08
30
C0
ENDCHAR
STARTCHAR 003F
ENCODING 63
SWIDTH 576 0
DWIDTH 8 0
BBX 6 10 2 0
BITMAP
38
44
84
04
0C
10
20
00
00
60
ENDCHAR
STARTCHAR 0040
ENCODING 64
SWIDTH 1008 0
DWIDTH 14 0
BBX 12 12 2 -2
BITMAP
0F80
3060
6020
4510
9B10
9110
9110
9320
9DC0
8000
C000
3F80
ENDCHAR
STARTCHAR 0041
ENCODING 65
SWIDTH 648 0
DWIDTH 9 0
BBX 8 10 1 0
BITMAP
04
0C
0C
16
12
22
7E
42
C3
81
ENDCHAR
STARTCHAR 0042
ENCODING 66
SWIDTH 576 0
DWIDTH 8 0
BBX 8 10 1 0
BITMAP
3E
63
41
41
46
7E
43
C3
82
FC
ENDCHAR
STARTCHAR 0043
ENCODING 67
SWIDTH 648 0
DWIDTH 9 0
BBX 9 10 1 0
BITMAP
0F00
3180
2080
4000
4000
4000
C000
4100
6300
3C00
ENDCHAR
STARTCHAR 0044
ENCODING 68
SWIDTH 648 0
DWIDTH 9 0
BBX 9 10 1 0
BITMAP
3E00
6300
4180
4080
4080
4180
4100
C100
8600
FC00
ENDCHAR
STARTCHAR 0045
ENCODING 69
SWIDTH 504 0
DWIDTH 7 0
BBX 8 10 1 0
BITMAP
3F
60
60
40
40
7C
40
C0
C0
FC
ENDCHAR
STARTCHAR 0046
ENCODING 70
SWIDTH 504 0
DWIDTH 7 0
BBX 7 10 1 0
BITMAP
3E
60
60
40
40
7C
40
C0
C0
80
ENDCHAR
STARTCHAR 0047
ENCODING 71
SWIDTH 648 0
DWIDTH 9 0
BBX 9 10 1 0
BITMAP
0F00
3180
2080
4000
4000
4780
C080
4180
6300
3D00
ENDCHAR
STARTCHAR 0048
ENCODING 72
SWIDTH 648 0
DWIDTH 9 0
BBX 9 10 1 0
BITMAP
2080
6080
6180
4100
4100
7F00
4100
C100
8300
8200
ENDCHAR
STARTCHAR 0049
ENCODING 73
SWIDTH 216 0
DWIDTH 3 0
BBX 3 10 1 0
BITMAP
20
20
60
40
40
40
40
40
C0
80
ENDCHAR
STARTCHAR 004A
ENCODING 74
SWIDTH 288 0
DWIDTH 4 0
BBX 4 10 1 0
BITMAP
10
10
10
10
30
20
20
20
20
C0
ENDCHAR
STARTCHAR 004B
ENCODING 75
SWIDTH 576 0
DWIDTH 8 0
BBX 8 10 1 0
BITMAP
21
66
4C
58
70
70
58
C8
84
86
ENDCHAR
STARTCHAR 004C
ENCODING 76
SWIDTH 504 0
DWIDTH 7 0
BBX 6 10 1 0
BITMAP
20
60
60
40
40
40
40
C0
80
FC
ENDCHAR
STARTCHAR 004D
ENCODING 77
SWIDTH 792 0
DWIDTH 11 0
BBX 11 10 1 0
BITMAP
3060
7060
50E0
51C0
5140
5B40
4A40
CE40
8CC0
8880
ENDCHAR
STARTCHAR 004E
ENCODING 78
SWIDTH 648 0
DWIDTH 9 0
BBX 9 10 1 0
BITMAP
2080
7080
7080
5880
4880
4D80
4500
C700
8300
8300
ENDCHAR
STARTCHAR 004F
ENCODING 79
SWIDTH 720 0
DWIDTH 10 0
BBX 9 10 1 0
BITMAP
0F00
3180
2080
4080
4080
C080
C080
4100
6300
3C00
ENDCHAR
STARTCHAR 0050
ENCODING 80
SWIDTH 576 0
DWIDTH 8 0
BBX 8 10 1 0
BITMAP
3C
63
41
41
43
46
78
C0
80
80
ENDCHAR
STARTCHAR 0051
ENCODING 81
SWIDTH 720 0
DWIDTH 10 0
BBX 9 11 1 -1
BITMAP
0F00
3180
2080
4080
4080
C080
C880
4500
6300
3E00
0100
ENDCHAR
STARTCHAR 0052
ENCODING 82
SWIDTH 576 0
DWIDTH 8 0
BBX 8 10 1 0
BITMAP
3C
63
61
41
42
7C
48
CC
84
86
ENDCHAR
STARTCHAR 0053
ENCODING 83
SWIDTH 576 0
DWIDTH 8 0
BBX 8 10 1 0
BITMAP
1E
22
43
40
30
0E
02
C2
C6
7C
ENDCHAR
STARTCHAR 0054
ENCODING 84
SWIDTH 576 0
DWIDTH 8 0
BBX 7 10 2 0
BITMAP
FE
10
10
10
30
20
20
20
20
20
ENDCHAR
STARTCHAR 0055
ENCODING 85
SWIDTH 648 0
DWIDTH 9 0
BBX 8 10 2 0
BITMAP
41
C1
81
81
83
82
82
86
84
78
ENDCHAR
STARTCHAR 0056
ENCODING 86
SWIDTH 576 0
DWIDTH 8 0
BBX 8 10 2 0
BITMAP
81
83
82
C6
44
4C
48
58
70
60
ENDCHAR
STARTCHAR 0057
ENCODING 87
SWIDTH 936 0
DWIDTH 13 0
BBX 13 10 2 0
BITMAP
8208
8608
8610
8F10
8920
D920
D160
7140
61C0
6180
ENDCHAR
STARTCHAR 0058
ENCODING 88
SWIDTH 648 0
DWIDTH 9 0
BBX 9 10 1 0
BITMAP
6080
2100
3200
1600
1C00
1800
3400
2400
4200
8200
ENDCHAR
STARTCHAR 0059
ENCODING 89
SWIDTH 576 0
DWIDTH 8 0
BBX 8 10 2 0
BITMAP
C3
42
44
48
28
30
20
20
20
20
ENDCHAR
STARTCHAR 005A
ENCODING 90
SWIDTH 576 0
DWIDTH 8 0
BBX 8 10 1 0
BITMAP
7F
01
02
04
08
10
20
60
C0
FE
ENDCHAR
STARTCHAR 005B
ENCODING 91
SWIDTH 432 0
DWIDTH 6 0
BBX 6 14 1 -3
BITMAP
3C
20
20
40
40
40
40
40
40
80
80
80
80
F0
ENDCHAR
STARTCHAR 005C
ENCODING 92
SWIDTH 504 0
DWIDTH 7 0
BBX 4 13 2 -2
BITMAP
80
80
80
C0
40
40
40
20
20
20
20
10
10
ENDCHAR
STARTCHAR 005D
ENCODING 93
SWIDTH 432 0
DWIDTH 6 0
BBX 6 14 1 -3
BITMAP
3C
04
08
08
08
08
08
08
10
10
10
10
10
F0
ENDCHAR
STARTCHAR 005E
ENCODING 94
SWIDTH 360 0
DWIDTH 5 0
BBX 4 3 2 8
BITMAP
20
50
90
ENDCHAR
STARTCHAR 005F
ENCODING 95
SWIDTH 648 0
DWIDTH 9 0
BBX 6 1 2 0
BITMAP
FC
ENDCHAR
STARTCHAR 0060
ENCODING 96
SWIDTH 216 0
DWIDTH 3 0
BBX 1 2 3 9
BITMAP
80
80
ENDCHAR
STARTCHAR 0061
ENCODING 97
SWIDTH 576 0
DWIDTH 8 0
BBX 8 7 1 1
BITMAP
3F
42
C2
82
86
C6
7E
ENDCHAR
STARTCHAR 0062
ENCODING 98
SWIDTH 576 0
DWIDTH 8 0
BBX 8 10 1 0
BITMAP
20
60
60
5E
63
43
43
C2
C6
BC
ENDCHAR
STARTCHAR 0063
ENCODING 99
SWIDTH 504 0
DWIDTH 7 0
BBX 7 8 1 0
BITMAP
08
3E
42
C0
80
86
C4
78
ENDCHAR
STARTCHAR 0064
ENCODING 100
SWIDTH 576 0
DWIDTH 8 0
BBX 8 10 1 0
BITMAP
01
01
03
3F
42
C2
82
86
C6
7E
ENDCHAR
STARTCHAR 0065
ENCODING 101
SWIDTH 504 0
DWIDTH 7 0
BBX 7 8 1 0
BITMAP
08
36
42
C6
F8
80
C4
78
ENDCHAR
STARTCHAR 0066
ENCODING 102
SWIDTH 360 0
DWIDTH 5 0
BBX 7 13 -1 -3
BITMAP
06
08
08
1E
08
18
10
10
10
10
10
30
E0
ENDCHAR
STARTCHAR 0067
ENCODING 103
SWIDTH 576 0
DWIDTH 8 0
BBX 8 11 1 -3
BITMAP
10
7F
42
C2
82
86
CE
76
04
0C
38
ENDCHAR
STARTCHAR 0068
ENCODING 104
SWIDTH 576 0
DWIDTH 8 0
BBX 7 10 1 0
BITMAP
20
60
60
5E
62
42
42
C2
82
86
ENDCHAR
STARTCHAR 0069
ENCODING 105
SWIDTH 216 0
DWIDTH 3 0
BBX 3 10 1 0
BITMAP
20
00
00
40
40
40
40
40
C0
80
ENDCHAR
STARTCHAR 006A
ENCODING 106
SWIDTH 216 0
DWIDTH 3 0
BBX 5 13 -1 -3
BITMAP
08
00
00
10
10
10
10
10
30
20
20
20
E0
ENDCHAR
STARTCHAR 006B
ENCODING 107
SWIDTH 504 0
DWIDTH 7 0
BBX 6 10 1 0
BITMAP
20
20
60
4C
58
60
60
50
D8
88
ENDCHAR
STARTCHAR 006C
ENCODING 108
SWIDTH 288 0
DWIDTH 4 0
BBX 3 10 1 0
BITMAP
20
20
60
40
40
40
40
40
C0
E0
ENDCHAR
STARTCHAR 006D
ENCODING 109
SWIDTH 936 0
DWIDTH 13 0
BBX 12 7 1 1
BITMAP
5EF0
6310
4210
4210
C210
8630
8420
ENDCHAR
STARTCHAR 006E
ENCODING 110
SWIDTH 576 0
DWIDTH 8 0
BBX 7 7 1 1
BITMAP
5E
62
42
42
C2
82
86
ENDCHAR
STARTCHAR 006F
ENCODING 111
SWIDTH 576 0
DWIDTH 8 0
BBX 7 7 1 1
BITMAP
3C
42
C2
82
86
C4
78
ENDCHAR
STARTCHAR 0070
ENCODING 112
SWIDTH 576 0
DWIDTH 8 0
BBX 8 10 1 -2
BITMAP
5E
63
43
43
C2
C6
BC
80
80
80
ENDCHAR
STARTCHAR 0071
ENCODING 113
SWIDTH 576 0
DWIDTH 8 0
BBX 8 10 1 -2
BITMAP
3F
42
C2
82
86
C6
7E
04
04
04
ENDCHAR
STARTCHAR 0072
ENCODING 114
SWIDTH 288 0
DWIDTH 4 0
BBX 5 7 1 0
BITMAP
58
60
40
40
C0
80
80
ENDCHAR
STARTCHAR 0073
ENCODING 115
SWIDTH 432 0
DWIDTH 6 0
BBX 6 8 1 0
BITMAP
10
6C
44
40
38
0C
88
78
ENDCHAR
STARTCHAR 0074
ENCODING 116
SWIDTH 360 0
DWIDTH 5 0
BBX 4 10 2 0
BITMAP
60
40
40
F0
40
40
C0
80
80
E0
ENDCHAR
STARTCHAR 0075
ENCODING 117
SWIDTH 576 0
DWIDTH 8 0
BBX 7 7 1 0
BITMAP
42
42
42
42
C2
46
7C
ENDCHAR
STARTCHAR 0076
ENCODING 118
SWIDTH 504 0
DWIDTH 7 0
BBX 6 7 2 0
BITMAP
84
8C
88
D0
50
60
60
ENDCHAR
STARTCHAR 0077
ENCODING 119
SWIDTH 792 0
DWIDTH 11 0
BBX 10 7 2 0
BITMAP
8C40
8C80
9480
9500
A500
A700
C600
ENDCHAR
STARTCHAR 0078
ENCODING 120
SWIDTH 504 0
DWIDTH 7 0
BBX 7 7 1 0
BITMAP
46
2C
28
30
38
48
8C
ENDCHAR
STARTCHAR 0079
ENCODING 121
SWIDTH 432 0
DWIDTH 6 0
BBX 8 10 0 -3
BITMAP
23
22
24
24
38
18
10
30
20
C0
ENDCHAR
STARTCHAR 007A
ENCODING 122
SWIDTH 432 0
DWIDTH 6 0
BBX 6 7 1 0
BITMAP
7C
0C
18
30
60
C0
F8
ENDCHAR
STARTCHAR 007B
ENCODING 123
SWIDTH 432 0
DWIDTH 6 0
BBX 6 15 2 -3
BITMAP
0C
30
20
20
20
20
40
C0
40
40
40
40
C0
80
60
ENDCHAR
STARTCHAR 007C
ENCODING 124
SWIDTH 288 0
DWIDTH 4 0
BBX 4 16 1 -3
BITMAP
10
20
20
20
20
20
20
40
40
40
40
40
40
80
80
80
ENDCHAR
STARTCHAR 007D
ENCODING 125
SWIDTH 432 0
DWIDTH 6 0
BBX 6 15 1 -3
BITMAP
10
08
08
08
08
08
08
0C
10
10
10
10
10
20
E0
ENDCHAR
STARTCHAR 007E
ENCODING 126
SWIDTH 504 0
DWIDTH 7 0
BBX 4 1 3 5
BITMAP
F0
ENDCHAR
STARTCHAR 00A0
ENCODING 160
SWIDTH 216 0
DWIDTH 3 0
BBX 0 0 0 0
BITMAP
ENDCHAR
STARTCHAR 00A1
ENCODING 161
SWIDTH 216 0
DWIDTH 3 0
BBX 3 10 1 -3
BITMAP
20
00
00
40
40
40
40
40
C0
C0
ENDCHAR
STARTCHAR 00A2
ENCODING 162
SWIDTH 576 0
DWIDTH 8 0
BBX 7 8 1 -1
BITMAP
08
3E
52
50
D0
D2
54
78
ENDCHAR
STARTCHAR 00A3
ENCODING 163
SWIDTH 576 0
DWIDTH 8 0
BBX 8 10 1 0
BITMAP
1E
22
63
60
20
20
78
20
40
FE
ENDCHAR
STARTCHAR 00A4
ENCODING 164
SWIDTH 576 0
DWIDTH 8 0
BBX 6 6 2 2
BITMAP
FC
4C
84
84
88
F8
ENDCHAR
STARTCHAR 00A5
ENCODING 165
SWIDTH 576 0
DWIDTH 8 0
BBX 8 10 2 0
BITMAP
C3
42
44
48
28
30
F8
20
F8
20
ENDCHAR
STARTCHAR 00A6
ENCODING 166
SWIDTH 288 0
DWIDTH 4 0
BBX 4 16 1 -3
BITMAP
10
20
20
20
20
20
20
00
00
40
40
40
40
80
80
80
ENDCHAR
STARTCHAR 00A7
ENCODING 167
SWIDTH 504 0
DWIDTH 7 0
BBX 7 10 1 0
BITMAP
1C
26
60
3C
46
42
3C
04
C4
78
ENDCHAR
STARTCHAR 00A8
ENCODING 168
SWIDTH 360 0
DWIDTH 5 0
BBX 4 1 2 9
BITMAP
D0
ENDCHAR
STARTCHAR 00A9
ENCODING 169
SWIDTH 792 0
DWIDTH 11 0
BBX 11 10 1 0
BITMAP
0F00
30C0
2640
5920
9020
A040
9140
5E40
4180
3E00
ENDCHAR
STARTCHAR 00AA
ENCODING 170
SWIDTH 144 0
DWIDTH 2 0
BBX 2 2 1 5
BITMAP
C0
C0
ENDCHAR
STARTCHAR 00AB
ENCODING 171
SWIDTH 576 0
DWIDTH 8 0
BBX 8 6 1 1
BITMAP
13
26
C8
44
22
13
ENDCHAR
STARTCHAR 00AC
ENCODING 172
SWIDTH 648 0
DWIDTH 9 0
BBX 7 3 2 4
BITMAP
FE
02
02
ENDCHAR
STARTCHAR 00AD
ENCODING 173
SWIDTH 576 0
DWIDTH 8 0
BBX 5 1 3 4
BITMAP
F8
ENDCHAR
STARTCHAR 00AE
ENCODING 174
SWIDTH 288 0
DWIDTH 4 0
BBX 3 4 2 6
BITMAP
60
E0
A0
40
ENDCHAR
STARTCHAR 00AF
ENCODING 175
SWIDTH 360 0
DWIDTH 5 0
BBX 4 1 2 9
BITMAP
F0
ENDCHAR
STARTCHAR 00B0
ENCODING 176
SWIDTH 288 0
DWIDTH 4 0
BBX 2 3 3 9
BITMAP
C0
C0
80
ENDCHAR
STARTCHAR 00B1
ENCODING 177
SWIDTH 576 0
DWIDTH 8 0
BBX 6 8 2 0
BITMAP
10
10
10
FC
20
20
00
F8
ENDCHAR
STARTCHAR 00B2
ENCODING 178
SWIDTH 288 0
DWIDTH 4 0
BBX 4 6 1 5
BITMAP
20
50
10
20
40
F0
ENDCHAR
STARTCHAR 00B3
ENCODING 179
SWIDTH 288 0
DWIDTH 4 0
BBX 5 6 1 5
BITMAP
30
48
10
10
90
60
ENDCHAR
STARTCHAR 00B4
ENCODING 180
SWIDTH 216 0
DWIDTH 3 0
BBX 2 2 2 9
BITMAP
40
C0
ENDCHAR
STARTCHAR 00B5
ENCODING 181
SWIDTH 576 0
DWIDTH 8 0
BBX 8 10 1 -3
BITMAP
42
42
46
44
C4
CC
F7
80
80
80
ENDCHAR
STARTCHAR 00B6
ENCODING 182
SWIDTH 504 0
DWIDTH 7 0
BBX 6 10 2 0
BITMAP
7C
F4
F4
F4
F8
28
28
28
28
28
ENDCHAR
STARTCHAR 00B7
ENCODING 183
SWIDTH 216 0
DWIDTH 3 0
BBX 2 2 2 4
BITMAP
C0
80
ENDCHAR
STARTCHAR 00B8
ENCODING 184
SWIDTH 216 0
DWIDTH 3 0
BBX 3 3 0 -3
BITMAP
80
60
E0
ENDCHAR
STARTCHAR 00B9
ENCODING 185
SWIDTH 216 0
DWIDTH 3 0
BBX 3 6 1 5
BITMAP
20
60
20
40
40
E0
ENDCHAR
STARTCHAR 00BA
ENCODING 186
SWIDTH 144 0
DWIDTH 2 0
BBX 2 2 1 5
BITMAP
C0
40
ENDCHAR
STARTCHAR 00BB
ENCODING 187
SWIDTH 576 0
DWIDTH 8 0
BBX 8 6 1 1
BITMAP
64
22
11
22
44
88
ENDCHAR
STARTCHAR 00BC
ENCODING 188
SWIDTH 792 0
DWIDTH 11 0
BBX 10 10 1 0
BITMAP
2040
6080
2100
2200
E200
0440
09C0
1140
33C0
2080
ENDCHAR
STARTCHAR 00BD
ENCODING 189
SWIDTH 792 0
DWIDTH 11 0
BBX 11 10 1 0
BITMAP
2040
6080
2100
2100
E200
04C0
0920
1840
1080
21C0
ENDCHAR
STARTCHAR 00BE
ENCODING 190
SWIDTH 792 0
DWIDTH 11 0
BBX 9 10 2 0
BITMAP
6080
A100
6300
2200
E400
0880
1980
1280
2380
4080
ENDCHAR
STARTCHAR 00BF
ENCODING 191
SWIDTH 504 0
DWIDTH 7 0
BBX 7 10 1 -3
BITMAP
08
08
00
08
10
20
40
86
84
78
ENDCHAR
STARTCHAR 00C0
ENCODING 192
SWIDTH 648 0
DWIDTH 9 0
BBX 8 13 1 0
BITMAP
08
04
00
04
0C
0C
16
12
22
7E
42
C3
81
ENDCHAR
STARTCHAR 00C1
ENCODING 193
SWIDTH 648 0
DWIDTH 9 0
BBX 8 13 1 0
BITMAP
03
02
00
04
0C
0C
16
12
22
7E
42
C3
81
ENDCHAR
STARTCHAR 00C2
ENCODING 194
SWIDTH 648 0
DWIDTH 9 0
BBX 8 13 1 0
BITMAP
06
0A
00
04
0C
0C
16
12
22
7E
42
C3
81
ENDCHAR
STARTCHAR 00C3
ENCODING 195
SWIDTH 648 0
DWIDTH 9 0
BBX 8 13 1 0
BITMAP
01
1E
00
04
0C
0C
16
12
22
7E
42
C3
81
ENDCHAR
STARTCHAR 00C4
ENCODING 196
SWIDTH 648 0
DWIDTH 9 0
BBX 8 13 1 0
BITMAP
09
0B
00
04
0C
0C
16
12
22
7E
42
C3
81
ENDCHAR
STARTCHAR 00C5
ENCODING 197
SWIDTH 648 0
DWIDTH 9 0
BBX 8 13 1 0
BITMAP
0E
06
00
04
0C
0C
16
12
22
7E
42
C3
81
ENDCHAR
STARTCHAR 00C6
ENCODING 198
SWIDTH 936 0
DWIDTH 13 0
BBX 13 10 1 0
BITMAP
03F8
0700
0500
0900
1B00
33F0
3E00
4200
C200
83E0
ENDCHAR
STARTCHAR 00C7
ENCODING 199
SWIDTH 648 0
DWIDTH 9 0
BBX 9 13 1 -3
BITMAP
0F00
3180
2080
4000
4000
4000
C000
4100
6300
3C00
1000
0C00
0800
ENDCHAR
STARTCHAR 00C8
ENCODING 200
SWIDTH 504 0
DWIDTH 7 0
BBX 8 13 1 0
BITMAP
18
08
00
3F
60
60
40
40
7C
40
C0
C0
FC
ENDCHAR
STARTCHAR 00C9
ENCODING 201
SWIDTH 504 0
DWIDTH 7 0
BBX 8 13 1 0
BITMAP
02
04
00
3F
60
60
40
40
7C
40
C0
C0
FC
ENDCHAR
STARTCHAR 00CA
ENCODING 202
SWIDTH 504 0
DWIDTH 7 0
BBX 8 13 1 0
BITMAP
0C
1E
00
3F
60
60
40
40
7C
40
C0
C0
FC
ENDCHAR
STARTCHAR 00CB
ENCODING 203
SWIDTH 504 0
DWIDTH 7 0
BBX 8 13 1 0
BITMAP
12
12
00
3F
60
60
40
40
7C
40
C0
C0
FC
ENDCHAR
STARTCHAR 00CC
ENCODING 204
SWIDTH 216 0
DWIDTH 3 0
BBX 3 13 1 0
BITMAP
40
20
00
20
20
60
40
40
40
40
40
C0
80
ENDCHAR
STARTCHAR 00CD
ENCODING 205
SWIDTH 216 0
DWIDTH 3 0
BBX 5 13 1 0
BITMAP
18
10
00
20
20
60
40
40
40
40
40
C0
80
ENDCHAR
STARTCHAR 00CE
ENCODING 206
SWIDTH 216 0
DWIDTH 3 0
BBX 4 13 1 0
BITMAP
20
50
00
20
20
60
40
40
40
40
40
C0
80
ENDCHAR
STARTCHAR 00CF
ENCODING 207
SWIDTH 216 0
DWIDTH 3 0
BBX 5 13 1 0
BITMAP
48
58
00
20
20
60
40
40
40
40
40
C0
80
ENDCHAR
STARTCHAR 00D0
ENCODING 208
SWIDTH 648 0
DWIDTH 9 0
BBX 8 10 2 0
BITMAP
7C
46
41
41
C1
A1
81
82
84
F8
ENDCHAR
STARTCHAR 00D1
ENCODING 209
SWIDTH 648 0
DWIDTH 9 0
BBX 9 13 1 0
BITMAP
0400
0B00
0000
2080
7080
7080
5880
4880
4D80
4500
C700
8300
8300
ENDCHAR
STARTCHAR 00D2
ENCODING 210
SWIDTH 720 0
DWIDTH 10 0
BBX 9 13 1 0
BITMAP
0C00
0400
0000
0F00
3180
2080
4080
4080
C080
C080
4100
6300
3C00
ENDCHAR
STARTCHAR 00D3
ENCODING 211
SWIDTH 720 0
DWIDTH 10 0
BBX 9 13 1 0
BITMAP
0100
0200
0000
0F00
3180
2080
4080
4080
C080
C080
4100
6300
3C00
ENDCHAR
STARTCHAR 00D4
ENCODING 212
SWIDTH 720 0
DWIDTH 10 0
BBX 9 13 1 0
BITMAP
0200
0F00
0000
0F00
3180
2080
4080
4080
C080
C080
4100
6300
3C00
ENDCHAR
STARTCHAR 00D5
ENCODING 213
SWIDTH 720 0
DWIDTH 10 0
BBX 9 13 1 0
BITMAP
0400
0B00
0000
0F00
3180
2080
4080
4080
C080
C080
4100
6300
3C00
ENDCHAR
STARTCHAR 00D6
ENCODING 214
SWIDTH 720 0
DWIDTH 10 0
BBX 9 13 1 0
BITMAP
0900
0900
0000
0F00
3180
2080
4080
4080
C080
C080
4100
6300
3C00
ENDCHAR
STARTCHAR 00D7
ENCODING 215
SWIDTH 504 0
DWIDTH 7 0
BBX 5 5 2 2
BITMAP
48
58
30
50
90
ENDCHAR
STARTCHAR 00D8
ENCODING 216
SWIDTH 720 0
DWIDTH 10 0
BBX 9 11 1 -1
BITMAP
0F80
3180
2180
4280
4480
4880
D080
7180
6300
7C00
8000
ENDCHAR
STARTCHAR 00D9
ENCODING 217
SWIDTH 648 0
DWIDTH 9 0
BBX 8 13 2 0
BITMAP
10
08
00
41
C1
81
81
83
82
82
86
84
78
ENDCHAR
STARTCHAR 00DA
ENCODING 218
SWIDTH 648 0
DWIDTH 9 0
BBX 8 13 2 0
BITMAP
06
04
00
41
C1
81
81
83
82
82
86
84
78
ENDCHAR
STARTCHAR 00DB
ENCODING 219
SWIDTH 648 0
DWIDTH 9 0
BBX 8 13 2 0
BITMAP
0C
14
00
41
C1
81
81
83
82
82
86
84
78
ENDCHAR
STARTCHAR 00DC
ENCODING 220
SWIDTH 648 0
DWIDTH 9 0
BBX 8 13 2 0
BITMAP
12
16
00
41
C1
81
81
83
82
82
86
84
78
ENDCHAR
STARTCHAR 00DD
ENCODING 221
SWIDTH 576 0
DWIDTH 8 0
BBX 8 13 2 0
BITMAP
04
08
00
C3
42
44
48
28
30
20
20
20
20
ENDCHAR
STARTCHAR 00DE
ENCODING 222
SWIDTH 576 0
DWIDTH 8 0
BBX 8 10 1 0
BITMAP
20
60
7E
42
43
42
42
FC
80
80
ENDCHAR
STARTCHAR 00DF
ENCODING 223
SWIDTH 504 0
DWIDTH 7 0
BBX 7 10 1 0
BITMAP
1C
22
62
42
5C
44
42
C6
84
B8
ENDCHAR
STARTCHAR 00E0
ENCODING 224
SWIDTH 576 0
DWIDTH 8 0
BBX 8 11 1 0
BITMAP
10
18
08
00
3F
42
C2
82
86
C6
7E
ENDCHAR
STARTCHAR 00E1
ENCODING 225
SWIDTH 576 0
DWIDTH 8 0
BBX 8 11 1 0
BITMAP
02
04
08
00
3F
42
C2
82
86
C6
7E
ENDCHAR
STARTCHAR 00E2
ENCODING 226
SWIDTH 576 0
DWIDTH 8 0
BBX 8 10 1 0
BITMAP
0C
36
00
3F
42
C2
82
86
C6
7E
ENDCHAR
STARTCHAR 00E3
ENCODING 227
SWIDTH 576 0
DWIDTH 8 0
BBX 8 10 1 0
BITMAP
1E
00
00
3F
42
C2
82
86
C6
7E
ENDCHAR
STARTCHAR 00E4
ENCODING 228
SWIDTH 576 0
DWIDTH 8 0
BBX 8 10 1 0
BITMAP
16
00
00
3F
42
C2
82
86
C6
7E
ENDCHAR
STARTCHAR 00E5
ENCODING 229
SWIDTH 576 0
DWIDTH 8 0
BBX 8 11 1 0
BITMAP
0C
14
08
00
3F
42
C2
82
86
C6
7E
ENDCHAR
STARTCHAR 00E6
ENCODING 230
SWIDTH 936 0
DWIDTH 13 0
BBX 12 8 1 0
BITMAP
0040
3DB0
4610
0610
7FF0
8400
8A20
F3C0
ENDCHAR
STARTCHAR 00E7
ENCODING 231
SWIDTH 504 0
DWIDTH 7 0
BBX 7 11 1 -3
BITMAP
08
3E
42
C0
80
86
C4
78
20
10
30
ENDCHAR
STARTCHAR 00E8
ENCODING 232
SWIDTH 504 0
DWIDTH 7 0
BBX 7 11 1 0
BITMAP
10
18
08
08
36
42
C6
F8
80
C4
78
ENDCHAR
STARTCHAR 00E9
ENCODING 233
SWIDTH 504 0
DWIDTH 7 0
BBX 7 11 1 0
BITMAP
02
04
08
08
36
42
C6
F8
80
C4
78
ENDCHAR
STARTCHAR 00EA
ENCODING 234
SWIDTH 504 0
DWIDTH 7 0
BBX 7 10 1 0
BITMAP
0C
12
08
36
42
C6
F8
80
C4
78
ENDCHAR
STARTCHAR 00EB
ENCODING 235
SWIDTH 504 0
DWIDTH 7 0
BBX 7 10 1 0
BITMAP
16
00
08
36
42
C6
F8
80
C4
78
ENDCHAR
STARTCHAR 00EC
ENCODING 236
SWIDTH 216 0
DWIDTH 3 0
BBX 3 11 1 0
BITMAP
40
40
20
00
40
40
40
40
40
C0
80
ENDCHAR
STARTCHAR 00ED
ENCODING 237
SWIDTH 216 0
DWIDTH 3 0
BBX 5 11 1 0
BITMAP
18
10
20
00
40
40
40
40
40
C0
80
ENDCHAR
STARTCHAR 00EE
ENCODING 238
SWIDTH 216 0
DWIDTH 3 0
BBX 4 10 1 0
BITMAP
70
90
00
40
40
40
40
40
C0
80
ENDCHAR
STARTCHAR 00EF
ENCODING 239
SWIDTH 216 0
DWIDTH 3 0
BBX 5 10 1 0
BITMAP
D8
00
00
40
40
40
40
40
C0
80
ENDCHAR
STARTCHAR 00F0
ENCODING 240
SWIDTH 576 0
DWIDTH 8 0
BBX 8 11 1 0
BITMAP
0D
06
0A
03
3D
42
C2
82
86
C4
78
ENDCHAR
STARTCHAR 00F1
ENCODING 241
SWIDTH 576 0
DWIDTH 8 0
BBX 7 10 1 0
BITMAP
1E
00
00
5E
62
42
42
C2
82
86
ENDCHAR
STARTCHAR 00F2
ENCODING 242
SWIDTH 576 0
DWIDTH 8 0
BBX 7 11 1 0
BITMAP
10
10
08
00
3C
42
C2
82
86
C4
78
ENDCHAR
STARTCHAR 00F3
ENCODING 243
SWIDTH 576 0
DWIDTH 8 0
BBX 7 11 1 0
BITMAP
02
04
08
00
3C
42
C2
82
86
C4
78
ENDCHAR
STARTCHAR 00F4
ENCODING 244
SWIDTH 576 0
DWIDTH 8 0
BBX 7 10 1 0
BITMAP
1C
36
00
3C
42
C2
82
86
C4
78
ENDCHAR
STARTCHAR 00F5
ENCODING 245
SWIDTH 576 0
DWIDTH 8 0
BBX 7 10 1 0
BITMAP
1E
00
00
3C
42
C2
82
86
C4
78
ENDCHAR
STARTCHAR 00F6
ENCODING 246
SWIDTH 576 0
DWIDTH 8 0
BBX 7 10 1 0
BITMAP
36
00
00
3C
42
C2
82
86
C4
78
ENDCHAR
STARTCHAR 00F7
ENCODING 247
SWIDTH 576 0
DWIDTH 8 0
BBX 5 7 2 1
BITMAP
20
60
00
F8
00
20
60
ENDCHAR
STARTCHAR 00F8
ENCODING 248
SWIDTH 576 0
DWIDTH 8 0
BBX 7 9 1 -1
BITMAP
0A
3C
4A
CA
92
A6
E4
78
80
ENDCHAR
STARTCHAR 00F9
ENCODING 249
SWIDTH 576 0
DWIDTH 8 0
BBX 7 11 1 0
BITMAP
10
10
08
00
42
42
42
42
C2
46
7C
ENDCHAR
STARTCHAR 00FA
ENCODING 250
SWIDTH 576 0
DWIDTH 8 0
BBX 7 11 1 0
BITMAP
02
04
08
00
42
42
42
42
C2
46
7C
ENDCHAR
STARTCHAR 00FB
ENCODING 251
SWIDTH 576 0
DWIDTH 8 0
BBX 7 10 1 0
BITMAP
1C
36
00
42
42
42
42
C2
46
7C
ENDCHAR
STARTCHAR 00FC
ENCODING 252
SWIDTH 576 0
DWIDTH 8 0
BBX 7 10 1 0
BITMAP
16
00
00
42
42
42
42
C2
46
7C
ENDCHAR
STARTCHAR 00FD
ENCODING 253
SWIDTH 432 0
DWIDTH 6 0
BBX 8 14 0 -3
BITMAP
02
04
04
00
23
22
24
24
38
18
10
30
20
C0
ENDCHAR
STARTCHAR 00FE
ENCODING 254
SWIDTH 576 0
DWIDTH 8 0
BBX 8 13 1 -3
BITMAP
20
60
60
5E
63
43
43
C2
C6
BC
80
80
80
ENDCHAR
STARTCHAR 00FF
ENCODING 255
SWIDTH 432 0
DWIDTH 6 0
BBX 8 13 0 -3
BITMAP
1A
00
00
23
22
24
24
38
18
10
30
20
C0
ENDCHAR
STARTCHAR 0100
ENCODING 256
SWIDTH 648 0
DWIDTH 9 0
BBX 8 12 1 0
BITMAP
0F
00
04
0C
0C
16
12
22
7E
42
C3
81
ENDCHAR
STARTCHAR 0101
ENCODING 257
SWIDTH 576 0
DWIDTH 8 0
BBX 8 9 1 0
BITMAP
1C
00
3F
42
C2
82
86
C6
7E
ENDCHAR
STARTCHAR 0102
ENCODING 258
SWIDTH 648 0
DWIDTH 9 0
BBX 8 12 1 0
BITMAP
0F
00
04
0C
0C
16
12
22
7E
42
C3
81
ENDCHAR
STARTCHAR 0103
ENCODING 259
SWIDTH 576 0
DWIDTH 8 0
BBX 8 10 1 0
BITMAP
12
0C
00
3F
42
C2
82
86
C6
7E
ENDCHAR
STARTCHAR 0104
ENCODING 260
SWIDTH 648 0
DWIDTH 9 0
BBX 8 12 1 -2
BITMAP
04
0C
0C
16
12
22
7E
42
C3
81
02
03
ENDCHAR
STARTCHAR 0105
ENCODING 261
SWIDTH 576 0
DWIDTH 8 0
BBX 8 9 1 -1
BITMAP
3F
42
C2
82
86
C6
7E
04
04
ENDCHAR
STARTCHAR 0106
ENCODING 262
SWIDTH 648 0
DWIDTH 9 0
BBX 9 13 1 0
BITMAP
0100
0200
0000
0F00
3180
2080
4000
4000
4000
C000
4100
6300
3C00
ENDCHAR
STARTCHAR 0107
ENCODING 263
SWIDTH 504 0
DWIDTH 7 0
BBX 7 11 1 0
BITMAP
02
04
08
08
3E
42
C0
80
86
C4
78
ENDCHAR
STARTCHAR 010A
ENCODING 266
SWIDTH 648 0
DWIDTH 9 0
BBX 9 13 1 0
BITMAP
0200
0600
0000
0F00
3180
2080
4000
4000
4000
C000
4100
6300
3C00
ENDCHAR
STARTCHAR 010B
ENCODING 267
SWIDTH 504 0
DWIDTH 7 0
BBX 7 10 1 0
BITMAP
08
00
08
3E
42
C0
80
86
C4
78
ENDCHAR
STARTCHAR 010C
ENCODING 268
SWIDTH 648 0
DWIDTH 9 0
BBX 9 13 1 0
BITMAP
0900
0600
0000
0F00
3180
2080
4000
4000
4000
C000
4100
6300
3C00
ENDCHAR
STARTCHAR 010D
ENCODING 269
SWIDTH 504 0
DWIDTH 7 0
BBX 7 10 1 0
BITMAP
16
08
08
3E
42
C0
80
86
C4
78
ENDCHAR
STARTCHAR 010E
ENCODING 270
SWIDTH 648 0
DWIDTH 9 0
BBX 9 13 1 0
BITMAP
0900
0A00
0400
3E00
6300
4180
4080
4080
4180
4100
C100
8600
FC00
ENDCHAR
STARTCHAR 010F
ENCODING 271
SWIDTH 720 0
DWIDTH 10 0
BBX 11 11 1 0
BITMAP
0060
0160
0140
0300
3F00
4200
C200
8200
8600
C600
7E00
ENDCHAR
STARTCHAR 0110
ENCODING 272
SWIDTH 648 0
DWIDTH 9 0
BBX 8 10 2 0
BITMAP
7C
46
41
41
C1
A1
81
82
84
F8
ENDCHAR
STARTCHAR 0111
ENCODING 273
SWIDTH 648 0
DWIDTH 9 0
BBX 9 10 1 0
BITMAP
0100
0780
0100
3F00
4200
C200
8200
8600
C600
7E00
ENDCHAR
STARTCHAR 0112
ENCODING 274
SWIDTH 504 0
DWIDTH 7 0
BBX 8 12 1 0
BITMAP
1E
00
3F
60
60
40
40
7C
40
C0
C0
FC
ENDCHAR
STARTCHAR 0113
ENCODING 275
SWIDTH 504 0
DWIDTH 7 0
BBX 7 9 1 0
BITMAP
1C
08
36
42
C6
F8
80
C4
78
ENDCHAR
STARTCHAR 0116
ENCODING 278
SWIDTH 504 0
DWIDTH 7 0
BBX 8 13 1 0
BITMAP
04
0C
00
3F
60
60
40
40
7C
40
C0
C0
FC
ENDCHAR
STARTCHAR 0117
ENCODING 279
SWIDTH 504 0
DWIDTH 7 0
BBX 7 10 1 0
BITMAP
0C
00
08
36
42
C6
F8
80
C4
78
ENDCHAR
STARTCHAR 0118
ENCODING 280
SWIDTH 504 0
DWIDTH 7 0
BBX 8 12 1 -2
BITMAP
3F
60
60
40
40
7C
40
C0
C0
FC
08
0C
ENDCHAR
STARTCHAR 0119
ENCODING 281
SWIDTH 504 0
DWIDTH 7 0
BBX 7 10 1 -2
BITMAP
08
36
42
C6
F8
80
C4
78
10
30
ENDCHAR
STARTCHAR 011A
ENCODING 282
SWIDTH 504 0
DWIDTH 7 0
BBX 8 13 1 0
BITMAP
12
0C
00
3F
60
60
40
40
7C
40
C0
C0
FC
ENDCHAR
STARTCHAR 011B
ENCODING 283
SWIDTH 504 0
DWIDTH 7 0
BBX 7 10 1 0
BITMAP
16
08
08
36
42
C6
F8
80
C4
78
ENDCHAR
STARTCHAR 011E
ENCODING 286
SWIDTH 648 0
DWIDTH 9 0
BBX 9 12 1 0
BITMAP
0F00
0000
0F00
3180
2080
4000
4000
4780
C080
4180
6300
3D00
ENDCHAR
STARTCHAR 011F
ENCODING 287
SWIDTH 576 0
DWIDTH 8 0
BBX 8 13 1 -3
BITMAP
12
0C
10
7F
42
C2
82
86
CE
76
04
0C
38
ENDCHAR
STARTCHAR 0120
ENCODING 288
SWIDTH 648 0
DWIDTH 9 0
BBX 9 13 1 0
BITMAP
0200
0600
0000
0F00
3180
2080
4000
4000
4780
C080
4180
6300
3D00
ENDCHAR
STARTCHAR 0121
ENCODING 289
SWIDTH 576 0
DWIDTH 8 0
BBX 8 13 1 -3
BITMAP
08
00
10
7F
42
C2
82
86
CE
76
04
0C
38
ENDCHAR
STARTCHAR 0126
ENCODING 294
SWIDTH 648 0
DWIDTH 9 0
BBX 10 10 1 0
BITMAP
2080
2080
7FC0
4180
4100
7F00
4100
4100
C100
8300
ENDCHAR
STARTCHAR 0127
ENCODING 295
SWIDTH 576 0
DWIDTH 8 0
BBX 8 10 1 0
BITMAP
20
78
64
5E
63
42
42
42
C2
82
ENDCHAR
STARTCHAR 0128
ENCODING 296
SWIDTH 216 0
DWIDTH 3 0
BBX 5 13 1 0
BITMAP
48
B0
00
20
20
60
40
40
40
40
40
C0
80
ENDCHAR
STARTCHAR 0129
ENCODING 297
SWIDTH 216 0
DWIDTH 3 0
BBX 4 10 1 0
BITMAP
F0
00
00
40
40
40
40
40
C0
80
ENDCHAR
STARTCHAR 012A
ENCODING 298
SWIDTH 216 0
DWIDTH 3 0
BBX 5 12 1 0
BITMAP
78
00
20
20
60
40
40
40
40
40
C0
80
ENDCHAR
STARTCHAR 012B
ENCODING 299
SWIDTH 216 0
DWIDTH 3 0
BBX 4 9 1 0
BITMAP
F0
00
40
40
40
40
40
C0
80
ENDCHAR
STARTCHAR 012E
ENCODING 302
SWIDTH 216 0
DWIDTH 3 0
BBX 4 12 0 -2
BITMAP
10
10
30
20
20
20
20
20
60
40
40
E0
ENDCHAR
STARTCHAR 012F
ENCODING 303
SWIDTH 216 0
DWIDTH 3 0
BBX 3 12 1 -2
BITMAP
20
00
00
40
40
40
40
40
C0
80
80
C0
ENDCHAR
STARTCHAR 0130
ENCODING 304
SWIDTH 216 0
DWIDTH 3 0
BBX 3 13 1 0
BITMAP
20
20
00
20
20
60
40
40
40
40
40
C0
80
ENDCHAR
STARTCHAR 0131
ENCODING 305
SWIDTH 216 0
DWIDTH 3 0
BBX 2 7 1 0
BITMAP
40
40
40
40
40
C0
80
ENDCHAR
STARTCHAR 0139
ENCODING 313
SWIDTH 504 0
DWIDTH 7 0
BBX 6 13 1 0
BITMAP
18
10
00
20
60
60
40
40
40
40
C0
80
FC
ENDCHAR
STARTCHAR 013A
ENCODING 314
SWIDTH 288 0
DWIDTH 4 0
BBX 5 14 1 0
BITMAP
08
10
20
00
20
20
60
40
40
40
40
40
C0
E0
ENDCHAR
STARTCHAR 013D
ENCODING 317
SWIDTH 504 0
DWIDTH 7 0
BBX 6 13 1 0
BITMAP
48
70
00
20
60
60
40
40
40
40
C0
80
FC
ENDCHAR
STARTCHAR 013E
ENCODING 318
SWIDTH 288 0
DWIDTH 4 0
BBX 4 11 1 0
BITMAP
30
30
20
60
40
40
40
40
40
C0
E0
ENDCHAR
STARTCHAR 0143
ENCODING 323
SWIDTH 648 0
DWIDTH 9 0
BBX 9 13 1 0
BITMAP
0100
0200
0000
2080
7080
7080
5880
4880
4D80
4500
C700
8300
8300
ENDCHAR
STARTCHAR 0144
ENCODING 324
SWIDTH 576 0
DWIDTH 8 0
BBX 7 11 1 0
BITMAP
02
04
08
00
5E
62
42
42
C2
82
86
ENDCHAR
STARTCHAR 0147
ENCODING 327
SWIDTH 648 0
DWIDTH 9 0
BBX 9 13 1 0
BITMAP
0900
0600
0000
2080
7080
7080
5880
4880
4D80
4500
C700
8300
8300
ENDCHAR
STARTCHAR 0148
ENCODING 328
SWIDTH 576 0
DWIDTH 8 0
BBX 7 10 1 0
BITMAP
16
08
00
5E
62
42
42
C2
82
86
ENDCHAR
STARTCHAR 014C
ENCODING 332
SWIDTH 720 0
DWIDTH 10 0
BBX 9 12 1 0
BITMAP
0F00
0000
0F00
3180
2080
4080
4080
C080
C080
4100
6300
3C00
ENDCHAR
STARTCHAR 014D
ENCODING 333
SWIDTH 576 0
DWIDTH 8 0
BBX 7 9 1 0
BITMAP
3C
00
3C
42
C2
82
86
C4
78
ENDCHAR
STARTCHAR 0152
ENCODING 338
SWIDTH 936 0
DWIDTH 13 0
BBX 13 10 1 0
BITMAP
0FF8
3900
6100
4100
4300
C3F0
C200
C200
6200
3FF0
ENDCHAR
STARTCHAR 0153
ENCODING 339
SWIDTH 936 0
DWIDTH 13 0
BBX 13 7 1 1
BITMAP
3CF0
4308
4208
83F8
8200
4710
79E0
ENDCHAR
STARTCHAR 0154
ENCODING 340
SWIDTH 576 0
DWIDTH 8 0
BBX 8 13 1 0
BITMAP
02
04
00
3C
63
61
41
42
7C
48
CC
84
86
ENDCHAR
STARTCHAR 0155
ENCODING 341
SWIDTH 288 0
DWIDTH 4 0
BBX 5 11 1 0
BITMAP
08
10
10
00
58
60
40
40
C0
80
80
ENDCHAR
STARTCHAR 0158
ENCODING 344
SWIDTH 576 0
DWIDTH 8 0
BBX 8 13 1 0
BITMAP
12
0C
00
3C
63
61
41
42
7C
48
CC
84
86
ENDCHAR
STARTCHAR 0159
ENCODING 345
SWIDTH 288 0
DWIDTH 4 0
BBX 5 10 1 0
BITMAP
68
30
00
58
60
40
40
C0
80
80
ENDCHAR
STARTCHAR 015A
ENCODING 346
SWIDTH 576 0
DWIDTH 8 0
BBX 8 13 1 0
BITMAP
02
04
00
1E
22
43
40
30
0E
02
C2
C6
7C
ENDCHAR
STARTCHAR 015B
ENCODING 347
SWIDTH 432 0
DWIDTH 6 0
BBX 6 11 1 0
BITMAP
04
08
08
10
6C
44
40
38
0C
88
78
ENDCHAR
STARTCHAR 015E
ENCODING 350
SWIDTH 576 0
DWIDTH 8 0
BBX 8 13 1 -3
BITMAP
1E
22
43
40
30
0E
02
C2
C6
7C
20
18
30
ENDCHAR
STARTCHAR 015F
ENCODING 351
SWIDTH 432 0
DWIDTH 6 0
BBX 6 11 1 -3
BITMAP
10
6C
44
40
38
0C
88
78
20
10
30
ENDCHAR
STARTCHAR 0160
ENCODING 352
SWIDTH 576 0
DWIDTH 8 0
BBX 8 13 1 0
BITMAP
19
0E
00
1E
22
43
40
30
0E
02
C2
C6
7C
ENDCHAR
STARTCHAR 0161
ENCODING 353
SWIDTH 432 0
DWIDTH 6 0
BBX 6 10 1 0
BITMAP
3C
18
10
6C
44
40
38
0C
88
78
ENDCHAR
STARTCHAR 0162
ENCODING 354
SWIDTH 576 0
DWIDTH 8 0
BBX 7 13 2 -3
BITMAP
FE
10
10
10
30
20
20
20
20
20
40
20
60
ENDCHAR
STARTCHAR 0163
ENCODING 355
SWIDTH 360 0
DWIDTH 5 0
BBX 4 13 2 -3
BITMAP
60
40
40
F0
40
40
C0
80
80
E0
80
60
60
ENDCHAR
STARTCHAR 0164
ENCODING 356
SWIDTH 576 0
DWIDTH 8 0
BBX 7 13 2 0
BITMAP
24
18
00
FE
10
10
10
30
20
20
20
20
20
ENDCHAR
STARTCHAR 0165
ENCODING 357
SWIDTH 432 0
DWIDTH 6 0
BBX 5 11 2 0
BITMAP
18
78
50
60
F0
40
40
C0
80
80
E0
ENDCHAR
STARTCHAR 0166
ENCODING 358
SWIDTH 576 0
DWIDTH 8 0
BBX 7 10 2 0
BITMAP
FE
10
10
10
FC
20
20
20
20
20
ENDCHAR
STARTCHAR 0167
ENCODING 359
SWIDTH 360 0
DWIDTH 5 0
BBX 5 10 1 0
BITMAP
30
20
20
78
20
F8
60
40
40
70
ENDCHAR
STARTCHAR 0168
ENCODING 360
SWIDTH 648 0
DWIDTH 9 0
BBX 8 13 2 0
BITMAP
02
1C
00
41
C1
81
81
83
82
82
86
84
78
ENDCHAR
STARTCHAR 0169
ENCODING 361
SWIDTH 576 0
DWIDTH 8 0
BBX 7 10 1 0
BITMAP
1E
00
00
42
42
42
42
C2
46
7C
ENDCHAR
STARTCHAR 016A
ENCODING 362
SWIDTH 648 0
DWIDTH 9 0
BBX 8 12 2 0
BITMAP
1E
00
41
C1
81
81
83
82
82
86
84
78
ENDCHAR
STARTCHAR 016B
ENCODING 363
SWIDTH 576 0
DWIDTH 8 0
BBX 7 9 1 0
BITMAP
3C
00
42
42
42
42
C2
46
7C
ENDCHAR
STARTCHAR 016E
ENCODING 366
SWIDTH 648 0
DWIDTH 9 0
BBX 8 13 2 0
BITMAP
1C
0C
00
41
C1
81
81
83
82
82
86
84
78
ENDCHAR
STARTCHAR 016F
ENCODING 367
SWIDTH 576 0
DWIDTH 8 0
BBX 7 11 1 0
BITMAP
0C
14
08
00
42
42
42
42
C2
46
7C
ENDCHAR
STARTCHAR 0172
ENCODING 370
SWIDTH 648 0
DWIDTH 9 0
BBX 8 12 2 -2
BITMAP
41
C1
81
81
83
82
82
86
84
78
20
20
ENDCHAR
STARTCHAR 0173
ENCODING 371
SWIDTH 576 0
DWIDTH 8 0
BBX 7 9 1 -2
BITMAP
42
42
42
42
C2
46
7C
08
0C
ENDCHAR
STARTCHAR 0174
ENCODING 372
SWIDTH 936 0
DWIDTH 13 0
BBX 13 13 2 0
BITMAP
0300
0500
0080
8208
8608
8610
8F10
8920
D920
D160
7140
61C0
6180
ENDCHAR
STARTCHAR 0175
ENCODING 373
SWIDTH 792 0
DWIDTH 11 0
BBX 10 10 2 0
BITMAP
0E00
1200
0000
8C40
8C80
9480
9500
A500
A700
C600
ENDCHAR
STARTCHAR 0176
ENCODING 374
SWIDTH 576 0
DWIDTH 8 0
BBX 8 13 2 0
BITMAP
08
14
20
C3
42
44
48
28
30
20
20
20
20
ENDCHAR
STARTCHAR 0177
ENCODING 375
SWIDTH 432 0
DWIDTH 6 0
BBX 8 13 0 -3
BITMAP
0C
12
00
23
22
24
24
38
18
10
30
20
C0
ENDCHAR
STARTCHAR 0178
ENCODING 376
SWIDTH 576 0
DWIDTH 8 0
BBX 8 13 2 0
BITMAP
04
34
00
C3
42
44
48
28
30
20
20
20
20
ENDCHAR
STARTCHAR 0179
ENCODING 377
SWIDTH 576 0
DWIDTH 8 0
BBX 8 13 1 0
BITMAP
02
04
00
7F
01
02
04
08
10
20
60
C0
FE
ENDCHAR
STARTCHAR 017A
ENCODING 378
SWIDTH 432 0
DWIDTH 6 0
BBX 6 11 1 0
BITMAP
04
08
08
00
7C
0C
18
30
60
C0
F8
ENDCHAR
STARTCHAR 017B
ENCODING 379
SWIDTH 576 0
DWIDTH 8 0
BBX 8 13 1 0
BITMAP
04
04
00
7F
01
02
04
08
10
20
60
C0
FE
ENDCHAR
STARTCHAR 017C
ENCODING 380
SWIDTH 432 0
DWIDTH 6 0
BBX 6 10 1 0
BITMAP
18
00
00
7C
0C
18
30
60
C0
F8
ENDCHAR
STARTCHAR 017D
ENCODING 381
SWIDTH 576 0
DWIDTH 8 0
BBX 8 13 1 0
BITMAP
13
0E
00
7F
01
02
04
08
10
20
60
C0
FE
ENDCHAR
STARTCHAR 017E
ENCODING 382
SWIDTH 432 0
DWIDTH 6 0
BBX 6 10 1 0
BITMAP
34
18
00
7C
0C
18
30
60
C0
F8
ENDCHAR
STARTCHAR 01A0
ENCODING 416
SWIDTH 720 0
DWIDTH 10 0
BBX 10 11 1 0
BITMAP
0040
0F80
3180
2080
4080
4080
C080
C080
4100
6300
3C00
ENDCHAR
STARTCHAR 01A1
ENCODING 417
SWIDTH 576 0
DWIDTH 8 0
BBX 8 9 1 0
BITMAP
01
01
3E
42
C2
82
86
C4
78
ENDCHAR
STARTCHAR 01AF
ENCODING 431
SWIDTH 648 0
DWIDTH 9 0
BBX 10 11 2 0
BITMAP
0040
4180
C100
8100
8100
8300
8200
8200
8600
8400
7800
ENDCHAR
STARTCHAR 01B0
ENCODING 432
SWIDTH 576 0
DWIDTH 8 0
BBX 9 9 1 0
BITMAP
0080
0080
4300
4200
4200
4200
C200
4600
7C00
ENDCHAR
STARTCHAR 02C6
ENCODING 710
SWIDTH 360 0
DWIDTH 5 0
BBX 4 2 2 8
BITMAP
70
90
ENDCHAR
STARTCHAR 02C7
ENCODING 711
SWIDTH 360 0
DWIDTH 5 0
BBX 3 2 3 8
BITMAP
A0
C0
ENDCHAR
STARTCHAR 02D8
ENCODING 728
SWIDTH 360 0
DWIDTH 5 0
BBX 4 2 2 8
BITMAP
90
60
ENDCHAR
STARTCHAR 02D9
ENCODING 729
SWIDTH 144 0
DWIDTH 2 0
BBX 2 1 2 9
BITMAP
C0
ENDCHAR
STARTCHAR 02DA
ENCODING 730
SWIDTH 216 0
DWIDTH 3 0
BBX 2 2 2 8
BITMAP
C0
C0
ENDCHAR
STARTCHAR 02DB
ENCODING 731
SWIDTH 144 0
DWIDTH 2 0
BBX 2 3 0 -3
BITMAP
40
80
40
ENDCHAR
STARTCHAR 02DC
ENCODING 732
SWIDTH 360 0
DWIDTH 5 0
BBX 4 1 2 9
BITMAP
F0
ENDCHAR
STARTCHAR 0300
ENCODING 768
SWIDTH 0 0
DWIDTH 0 0
BBX 2 2 -1 9
BITMAP
80
40
ENDCHAR
STARTCHAR 0301
ENCODING 769
SWIDTH 0 0
DWIDTH 0 0
BBX 2 2 -1 9
BITMAP
40
80
ENDCHAR
STARTCHAR 0302
ENCODING 770
SWIDTH 0 0
DWIDTH 0 0
BBX 4 2 -3 8
BITMAP
60
90
ENDCHAR
STARTCHAR 0303
ENCODING 771
SWIDTH 0 0
DWIDTH 0 0
BBX 4 1 -3 9
BITMAP
F0
ENDCHAR
STARTCHAR 0304
ENCODING 772
SWIDTH 0 0
DWIDTH 0 0
BBX 4 1 -3 9
BITMAP
F0
ENDCHAR
STARTCHAR 0306
ENCODING 774
SWIDTH 0 0
DWIDTH 0 0
BBX 4 2 -3 8
BITMAP
90
60
ENDCHAR
STARTCHAR 0307
ENCODING 775
SWIDTH 0 0
DWIDTH 0 0
BBX 2 1 -1 9
BITMAP
C0
ENDCHAR
STARTCHAR 0308
ENCODING 776
SWIDTH 0 0
DWIDTH 0 0
BBX 5 1 -4 9
BITMAP
D8
ENDCHAR
STARTCHAR 0309
ENCODING 777
SWIDTH 0 0
DWIDTH 0 0
BBX 2 2 -1 9
BITMAP
C0
40
ENDCHAR
STARTCHAR 030A
ENCODING 778
SWIDTH 0 0
DWIDTH 0 0
BBX 2 2 -1 8
BITMAP
C0
C0
ENDCHAR
STARTCHAR 030C
ENCODING 780
SWIDTH 0 0
DWIDTH 0 0
BBX 4 2 -3 8
BITMAP
B0
40
ENDCHAR
STARTCHAR 031B
ENCODING 795
SWIDTH 0 0
DWIDTH 0 0
BBX 2 2 -1 8
BITMAP
40
C0
ENDCHAR
STARTCHAR 0323
ENCODING 803
SWIDTH 0 0
DWIDTH 0 0
BBX 1 1 -2 -3
BITMAP
80
ENDCHAR
STARTCHAR 0327
ENCODING 807
SWIDTH 0 0
DWIDTH 0 0
BBX 2 3 -3 -3
BITMAP
80
40
C0
ENDCHAR
STARTCHAR 0328
ENCODING 808
SWIDTH 0 0
DWIDTH 0 0
BBX 2 3 -3 -3
BITMAP
40
80
40
ENDCHAR
STARTCHAR 1E80
ENCODING 7808
SWIDTH 936 0
DWIDTH 13 0
BBX 13 13 2 0
BITMAP
0400
0200
0000
8208
8608
8610
8F10
8920
D920
D160
7140
61C0
6180
ENDCHAR
STARTCHAR 1E81
ENCODING 7809
SWIDTH 792 0
DWIDTH 11 0
BBX 10 11 2 0
BITMAP
1800
0800
0800
0000
8C40
8C80
9480
9500
A500
A700
C600
ENDCHAR
STARTCHAR 1E82
ENCODING 7810
SWIDTH 936 0
DWIDTH 13 0
BBX 13 13 2 0
BITMAP
0080
0100
0000
8208
8608
8610
8F10
8920
D920
D160
7140
61C0
6180
ENDCHAR
STARTCHAR 1E83
ENCODING 7811
SWIDTH 792 0
DWIDTH 11 0
BBX 10 11 2 0
BITMAP
0200
0200
0400
0000
8C40
8C80
9480
9500
A500
A700
C600
ENDCHAR
STARTCHAR 1E84
ENCODING 7812
SWIDTH 936 0
DWIDTH 13 0
BBX 13 13 2 0
BITMAP
0480
0480
0000
8208
8608
8610
8F10
8920
D920
D160
7140
61C0
6180
ENDCHAR
STARTCHAR 1E85
ENCODING 7813
SWIDTH 792 0
DWIDTH 11 0
BBX 10 10 2 0
BITMAP
1A00
0000
0000
8C40
8C80
9480
9500
A500
A700
C600
ENDCHAR
STARTCHAR 1EA0
ENCODING 7840
SWIDTH 648 0
DWIDTH 9 0
BBX 8 13 1 -3
BITMAP
04
0C
0C
16
12
22
7E
42
C3
81
00
00
10
ENDCHAR
STARTCHAR 1EA1
ENCODING 7841
SWIDTH 576 0
DWIDTH 8 0
BBX 8 10 1 -2
BITMAP
3F
42
C2
82
86
C6
7E
00
00
30
ENDCHAR
STARTCHAR 1EA2
ENCODING 7842
SWIDTH 648 0
DWIDTH 9 0
BBX 8 13 1 0
BITMAP
0E
02
00
04
0C
0C
16
12
22
7E
42
C3
81
ENDCHAR
STARTCHAR 1EA3
ENCODING 7843
SWIDTH 576 0
DWIDTH 8 0
BBX 8 11 1 0
BITMAP
0C
04
08
00
3F
42
C2
82
86
C6
7E
ENDCHAR
STARTCHAR 1EA4
ENCODING 7844
SWIDTH 648 0
DWIDTH 9 0
BBX 10 15 1 0
BITMAP
0040
0080
0700
0A00
0000
0400
0C00
0C00
1600
1200
2200
7E00
4200
C300
8100
ENDCHAR
STARTCHAR 1EA5
ENCODING 7845
SWIDTH 576 0
DWIDTH 8 0
BBX 9 12 1 0
BITMAP
0080
0100
0C00
3600
0000
3F00
4200
C200
8200
8600
C600
7E00
ENDCHAR
STARTCHAR 1EA6
ENCODING 7846
SWIDTH 648 0
DWIDTH 9 0
BBX 8 15 1 0
BITMAP
03
01
07
0A
00
04
0C
0C
16
12
22
7E
42
C3
81
ENDCHAR
STARTCHAR 1EA7
ENCODING 7847
SWIDTH 576 0
DWIDTH 8 0
BBX 8 12 1 0
BITMAP
02
02
0C
36
00
3F
42
C2
82
86
C6
7E
ENDCHAR
STARTCHAR 1EA8
ENCODING 7848
SWIDTH 648 0
DWIDTH 9 0
BBX 10 15 1 0
BITMAP
0180
0040
0780
0A00
0000
0400
0C00
0C00
1600
1200
2200
7E00
4200
C300
8100
ENDCHAR
STARTCHAR 1EA9
ENCODING 7849
SWIDTH 576 0
DWIDTH 8 0
BBX 9 13 1 0
BITMAP
0100
0280
0100
0C00
3600
0000
3F00
4200
C200
8200
8600
C600
7E00
ENDCHAR
STARTCHAR 1EAA
ENCODING 7850
SWIDTH 648 0
DWIDTH 9 0
BBX 8 15 1 0
BITMAP
0D
02
06
0A
00
04
0C
0C
16
12
22
7E
42
C3
81
ENDCHAR
STARTCHAR 1EAB
ENCODING 7851
SWIDTH 576 0
DWIDTH 8 0
BBX 8 12 1 0
BITMAP
1E
00
0C
36
00
3F
42
C2
82
86
C6
7E
ENDCHAR
STARTCHAR 1EAC
ENCODING 7852
SWIDTH 648 0
DWIDTH 9 0
BBX 8 16 1 -3
BITMAP
06
0A
00
04
0C
0C
16
12
22
7E
42
C3
81
00
00
10
ENDCHAR
STARTCHAR 1EAD
ENCODING 7853
SWIDTH 576 0
DWIDTH 8 0
BBX 8 13 1 -3
BITMAP
0C
36
00
3F
42
C2
82
86
C6
7E
00
00
30
ENDCHAR
STARTCHAR 1EAE
ENCODING 7854
SWIDTH 648 0
DWIDTH 9 0
BBX 8 15 1 0
BITMAP
01
02
00
0F
00
04
0C
0C
16
12
22
7E
42
C3
81
ENDCHAR
STARTCHAR 1EAF
ENCODING 7855
SWIDTH 576 0
DWIDTH 8 0
BBX 8 13 1 0
BITMAP
02
04
04
12
0C
00
3F
42
C2
82
86
C6
7E
ENDCHAR
STARTCHAR 1EB0
ENCODING 7856
SWIDTH 648 0
DWIDTH 9 0
BBX 8 15 1 0
BITMAP
0C
04
00
0F
00
04
0C
0C
16
12
22
7E
42
C3
81
ENDCHAR
STARTCHAR 1EB1
ENCODING 7857
SWIDTH 576 0
DWIDTH 8 0
BBX 8 13 1 0
BITMAP
18
08
08
12
0C
00
3F
42
C2
82
86
C6
7E
ENDCHAR
STARTCHAR 1EB2
ENCODING 7858
SWIDTH 648 0
DWIDTH 9 0
BBX 8 15 1 0
BITMAP
07
02
00
0F
00
04
0C
0C
16
12
22
7E
42
C3
81
ENDCHAR
STARTCHAR 1EB3
ENCODING 7859
SWIDTH 576 0
DWIDTH 8 0
BBX 8 13 1 0
BITMAP
0C
02
04
12
0C
00
3F
42
C2
82
86
C6
7E
ENDCHAR
STARTCHAR 1EB4
ENCODING 7860
SWIDTH 648 0
DWIDTH 9 0
BBX 8 15 1 0
BITMAP
04
0B
00
0F
00
04
0C
0C
16
12
22
7E
42
C3
81
ENDCHAR
STARTCHAR 1EB5
ENCODING 7861
SWIDTH 576 0
DWIDTH 8 0
BBX 8 12 1 0
BITMAP
1E
00
12
0C
00
3F
42
C2
82
86
C6
7E
ENDCHAR
STARTCHAR 1EB6
ENCODING 7862
SWIDTH 648 0
DWIDTH 9 0
BBX 8 15 1 -3
BITMAP
0F
00
04
0C
0C
16
12
22
7E
42
C3
81
00
00
10
ENDCHAR
STARTCHAR 1EB7
ENCODING 7863
SWIDTH 576 0
DWIDTH 8 0
BBX 8 13 1 -3
BITMAP
12
0C
00
3F
42
C2
82
86
C6
7E
00
00
30
ENDCHAR
STARTCHAR 1EB8
ENCODING 7864
SWIDTH 504 0
DWIDTH 7 0
BBX 8 13 1 -3
BITMAP
3F
60
60
40
40
7C
40
C0
C0
FC
00
00
20
ENDCHAR
STARTCHAR 1EB9
ENCODING 7865
SWIDTH 504 0
DWIDTH 7 0
BBX 7 11 1 -3
BITMAP
08
36
42
C6
F8
80
C4
78
00
00
30
ENDCHAR
STARTCHAR 1EBA
ENCODING 7866
SWIDTH 504 0
DWIDTH 7 0
BBX 8 13 1 0
BITMAP
0E
04
00
3F
60
60
40
40
7C
40
C0
C0
FC
ENDCHAR
STARTCHAR 1EBB
ENCODING 7867
SWIDTH 504 0
DWIDTH 7 0
BBX 7 11 1 0
BITMAP
0C
04
08
08
36
42
C6
F8
80
C4
78
ENDCHAR
STARTCHAR 1EBC
ENCODING 7868
SWIDTH 504 0
DWIDTH 7 0
BBX 8 13 1 0
BITMAP
08
16
00
3F
60
60
40
40
7C
40
C0
C0
FC
ENDCHAR
STARTCHAR 1EBD
ENCODING 7869
SWIDTH 504 0
DWIDTH 7 0
BBX 7 10 1 0
BITMAP
1E
00
08
36
42
C6
F8
80
C4
78
ENDCHAR
STARTCHAR 1EBE
ENCODING 7870
SWIDTH 504 0
DWIDTH 7 0
BBX 9 15 1 0
BITMAP
0080
0080
0D00
1E00
0000
3F00
6000
6000
4000
4000
7C00
4000
C000
C000
FC00
ENDCHAR
STARTCHAR 1EBF
ENCODING 7871
SWIDTH 504 0
DWIDTH 7 0
BBX 9 12 1 0
BITMAP
0080
0100
0C00
1200
0800
3600
4200
C600
F800
8000
C400
7800
ENDCHAR
STARTCHAR 1EC0
ENCODING 7872
SWIDTH 504 0
DWIDTH 7 0
BBX 8 15 1 0
BITMAP
02
02
0D
1E
00
3F
60
60
40
40
7C
40
C0
C0
FC
ENDCHAR
STARTCHAR 1EC1
ENCODING 7873
SWIDTH 504 0
DWIDTH 7 0
BBX 7 12 1 0
BITMAP
02
02
0C
36
08
36
42
C6
F8
80
C4
78
ENDCHAR
STARTCHAR 1EC2
ENCODING 7874
SWIDTH 504 0
DWIDTH 7 0
BBX 9 15 1 0
BITMAP
0380
0080
0D00
1E00
0000
3F00
6000
6000
4000
4000
7C00
4000
C000
C000
FC00
ENDCHAR
STARTCHAR 1EC3
ENCODING 7875
SWIDTH 504 0
DWIDTH 7 0
BBX 9 13 1 0
BITMAP
0100
0280
0100
0C00
1200
0800
3600
4200
C600
F800
8000
C400
7800
ENDCHAR
STARTCHAR 1EC4
ENCODING 7876
SWIDTH 504 0
DWIDTH 7 0
BBX 8 15 1 0
BITMAP
09
16
0C
1E
00
3F
60
60
40
40
7C
40
C0
C0
FC
ENDCHAR
STARTCHAR 1EC5
ENCODING 7877
SWIDTH 504 0
DWIDTH 7 0
BBX 7 12 1 0
BITMAP
1E
00
0C
12
08
36
42
C6
F8
80
C4
78
ENDCHAR
STARTCHAR 1EC6
ENCODING 7878
SWIDTH 504 0
DWIDTH 7 0
BBX 8 16 1 -3
BITMAP
0C
1E
00
3F
60
60
40
40
7C
40
C0
C0
FC
00
00
20
ENDCHAR
STARTCHAR 1EC7
ENCODING 7879
SWIDTH 504 0
DWIDTH 7 0
BBX 7 13 1 -3
BITMAP
0C
12
08
36
42
C6
F8
80
C4
78
00
00
30
ENDCHAR
STARTCHAR 1EC8
ENCODING 7880
SWIDTH 216 0
DWIDTH 3 0
BBX 4 13 1 0
BITMAP
70
10
00
20
20
60
40
40
40
40
40
C0
80
ENDCHAR
STARTCHAR 1EC9
ENCODING 7881
SWIDTH 216 0
DWIDTH 3 0
BBX 4 11 1 0
BITMAP
70
10
20
00
40
40
40
40
40
C0
80
ENDCHAR
STARTCHAR 1ECA
ENCODING 7882
SWIDTH 216 0
DWIDTH 3 0
BBX 3 13 1 -3
BITMAP
20
20
60
40
40
40
40
40
C0
80
00
00
80
ENDCHAR
STARTCHAR 1ECB
ENCODING 7883
SWIDTH 216 0
DWIDTH 3 0
BBX 3 13 1 -3
BITMAP
20
00
00
40
40
40
40
40
C0
80
00
00
80
ENDCHAR
STARTCHAR 1ECC
ENCODING 7884
SWIDTH 720 0
DWIDTH 10 0
BBX 9 13 1 -3
BITMAP
0F00
3180
2080
4080
4080
C080
C080
4100
6300
3C00
0000
0000
1000
ENDCHAR
STARTCHAR 1ECD
ENCODING 7885
SWIDTH 576 0
DWIDTH 8 0
BBX 7 10 1 -2
BITMAP
3C
42
C2
82
86
C4
78
00
00
20
ENDCHAR
STARTCHAR 1ECE
ENCODING 7886
SWIDTH 720 0
DWIDTH 10 0
BBX 9 13 1 0
BITMAP
0700
0200
0000
0F00
3180
2080
4080
4080
C080
C080
4100
6300
3C00
ENDCHAR
STARTCHAR 1ECF
ENCODING 7887
SWIDTH 576 0
DWIDTH 8 0
BBX 7 11 1 0
BITMAP
0C
04
08
00
3C
42
C2
82
86
C4
78
ENDCHAR
STARTCHAR 1ED0
ENCODING 7888
SWIDTH 720 0
DWIDTH 10 0
BBX 11 15 1 0
BITMAP
0060
0040
0280
0F00
0000
0F00
3180
2080
4080
4080
C080
C080
4100
6300
3C00
ENDCHAR
STARTCHAR 1ED1
ENCODING 7889
SWIDTH 576 0
DWIDTH 8 0
BBX 9 12 1 0
BITMAP
0180
0100
1C00
2600
0000
3C00
4200
C200
8200
8600
C400
7800
ENDCHAR
STARTCHAR 1ED2
ENCODING 7890
SWIDTH 720 0
DWIDTH 10 0
BBX 9 15 1 0
BITMAP
0100
0100
0280
0F00
0000
0F00
3180
2080
4080
4080
C080
C080
4100
6300
3C00
ENDCHAR
STARTCHAR 1ED3
ENCODING 7891
SWIDTH 576 0
DWIDTH 8 0
BBX 7 12 1 0
BITMAP
02
02
1C
26
00
3C
42
C2
82
86
C4
78
ENDCHAR
STARTCHAR 1ED4
ENCODING 7892
SWIDTH 720 0
DWIDTH 10 0
BBX 10 15 1 0
BITMAP
01C0
0040
0280
0F00
0000
0F00
3180
2080
4080
4080
C080
C080
4100
6300
3C00
ENDCHAR
STARTCHAR 1ED5
ENCODING 7893
SWIDTH 576 0
DWIDTH 8 0
BBX 8 13 1 0
BITMAP
03
05
01
1C
26
00
3C
42
C2
82
86
C4
78
ENDCHAR
STARTCHAR 1ED6
ENCODING 7894
SWIDTH 720 0
DWIDTH 10 0
BBX 9 15 1 0
BITMAP
0480
0B00
0200
0F00
0000
0F00
3180
2080
4080
4080
C080
C080
4100
6300
3C00
ENDCHAR
STARTCHAR 1ED7
ENCODING 7895
SWIDTH 576 0
DWIDTH 8 0
BBX 7 12 1 0
BITMAP
1E
00
1C
26
00
3C
42
C2
82
86
C4
78
ENDCHAR
STARTCHAR 1ED8
ENCODING 7896
SWIDTH 720 0
DWIDTH 10 0
BBX 9 16 1 -3
BITMAP
0200
0F00
0000
0F00
3180
2080
4080
4080
C080
C080
4100
6300
3C00
0000
0000
1000
ENDCHAR
STARTCHAR 1ED9
ENCODING 7897
SWIDTH 576 0
DWIDTH 8 0
BBX 7 13 1 -3
BITMAP
1C
36
00
3C
42
C2
82
86
C4
78
00
00
20
ENDCHAR
STARTCHAR 1EDA
ENCODING 7898
SWIDTH 720 0
DWIDTH 10 0
BBX 10 13 1 0
BITMAP
0100
0200
0040
0F80
3180
2080
4080
4080
C080
C080
4100
6300
3C00
ENDCHAR
STARTCHAR 1EDB
ENCODING 7899
SWIDTH 576 0
DWIDTH 8 0
BBX 8 11 1 0
BITMAP
02
04
09
01
3E
42
C2
82
86
C4
78
ENDCHAR
STARTCHAR 1EDC
ENCODING 7900
SWIDTH 720 0
DWIDTH 10 0
BBX 10 13 1 0
BITMAP
0C00
0400
0040
0F80
3180
2080
4080
4080
C080
C080
4100
6300
3C00
ENDCHAR
STARTCHAR 1EDD
ENCODING 7901
SWIDTH 576 0
DWIDTH 8 0
BBX 8 11 1 0
BITMAP
10
10
09
01
3E
42
C2
82
86
C4
78
ENDCHAR
STARTCHAR 1EDE
ENCODING 7902
SWIDTH 720 0
DWIDTH 10 0
BBX 10 13 1 0
BITMAP
0700
0200
0040
0F80
3180
2080
4080
4080
C080
C080
4100
6300
3C00
ENDCHAR
STARTCHAR 1EDF
ENCODING 7903
SWIDTH 576 0
DWIDTH 8 0
BBX 8 11 1 0
BITMAP
0C
04
09
01
3E
42
C2
82
86
C4
78
ENDCHAR
STARTCHAR 1EE0
ENCODING 7904
SWIDTH 720 0
DWIDTH 10 0
BBX 10 13 1 0
BITMAP
0400
0B00
0040
0F80
3180
2080
4080
4080
C080
C080
4100
6300
3C00
ENDCHAR
STARTCHAR 1EE1
ENCODING 7905
SWIDTH 576 0
DWIDTH 8 0
BBX 8 10 1 0
BITMAP
1E
01
01
3E
42
C2
82
86
C4
78
ENDCHAR
STARTCHAR 1EE2
ENCODING 7906
SWIDTH 720 0
DWIDTH 10 0
BBX 10 14 1 -3
BITMAP
0040
0F80
3180
2080
4080
4080
C080
C080
4100
6300
3C00
0000
0000
1000
ENDCHAR
STARTCHAR 1EE3
ENCODING 7907
SWIDTH 576 0
DWIDTH 8 0
BBX 8 12 1 -3
BITMAP
01
01
3E
42
C2
82
86
C4
78
00
00
20
ENDCHAR
STARTCHAR 1EE4
ENCODING 7908
SWIDTH 648 0
DWIDTH 9 0
BBX 8 13 2 -3
BITMAP
41
C1
81
81
83
82
82
86
84
78
00
00
20
ENDCHAR
STARTCHAR 1EE5
ENCODING 7909
SWIDTH 576 0
DWIDTH 8 0
BBX 7 10 1 -3
BITMAP
42
42
42
42
C2
46
7C
00
00
20
ENDCHAR
STARTCHAR 1EE6
ENCODING 7910
SWIDTH 648 0
DWIDTH 9 0
BBX 8 13 2 0
BITMAP
0C
04
00
41
C1
81
81
83
82
82
86
84
78
ENDCHAR
STARTCHAR 1EE7
ENCODING 7911
SWIDTH 576 0
DWIDTH 8 0
BBX 7 11 1 0
BITMAP
0C
04
08
00
42
42
42
42
C2
46
7C
ENDCHAR
STARTCHAR 1EE8
ENCODING 7912
SWIDTH 648 0
DWIDTH 9 0
BBX 10 13 2 0
BITMAP
0600
0400
0040
4180
C100
8100
8100
8300
8200
8200
8600
8400
7800
ENDCHAR
STARTCHAR 1EE9
ENCODING 7913
SWIDTH 576 0
DWIDTH 8 0
BBX 9 11 1 0
BITMAP
0200
0400
0880
0080
4300
4200
4200
4200
C200
4600
7C00
ENDCHAR
STARTCHAR 1EEA
ENCODING 7914
SWIDTH 648 0
DWIDTH 9 0
BBX 10 13 2 0
BITMAP
1000
0800
0040
4180
C100
8100
8100
8300
8200
8200
8600
8400
7800
ENDCHAR
STARTCHAR 1EEB
ENCODING 7915
SWIDTH 576 0
DWIDTH 8 0
BBX 9 11 1 0
BITMAP
3000
1000
1080
0080
4300
4200
4200
4200
C200
4600
7C00
ENDCHAR
STARTCHAR 1EEC
ENCODING 7916
SWIDTH 648 0
DWIDTH 9 0
BBX 10 13 2 0
BITMAP
0C00
0400
0040
4180
C100
8100
8100
8300
8200
8200
8600
8400
7800
ENDCHAR
STARTCHAR 1EED
ENCODING 7917
SWIDTH 576 0
DWIDTH 8 0
BBX 9 11 1 0
BITMAP
0C00
0400
0880
0080
4300
4200
4200
4200
C200
4600
7C00
ENDCHAR
STARTCHAR 1EEE
ENCODING 7918
SWIDTH 648 0
DWIDTH 9 0
BBX 10 13 2 0
BITMAP
0200
1C00
0040
4180
C100
8100
8100
8300
8200
8200
8600
8400
7800
ENDCHAR
STARTCHAR 1EEF
ENCODING 7919
SWIDTH 576 0
DWIDTH 8 0
BBX 9 10 1 0
BITMAP
1E00
0080
0080
4300
4200
4200
4200
C200
4600
7C00
ENDCHAR
STARTCHAR 1EF0
ENCODING 7920
SWIDTH 648 0
DWIDTH 9 0
BBX 10 14 2 -3
BITMAP
0040
4180
C100
8100
8100
8300
8200
8200
8600
8400
7800
0000
0000
2000
ENDCHAR
STARTCHAR 1EF1
ENCODING 7921
SWIDTH 576 0
DWIDTH 8 0
BBX 9 12 1 -3
BITMAP
0080
0080
4300
4200
4200
4200
C200
4600
7C00
0000
0000
6000
ENDCHAR
STARTCHAR 1EF2
ENCODING 7922
SWIDTH 576 0
DWIDTH 8 0
BBX 8 13 2 0
BITMAP
10
10
00
C3
42
44
48
28
30
20
20
20
20
ENDCHAR
STARTCHAR 1EF3
ENCODING 7923
SWIDTH 432 0
DWIDTH 6 0
BBX 8 14 0 -3
BITMAP
10
08
08
00
23
22
24
24
38
18
10
30
20
C0
ENDCHAR
STARTCHAR 1EF4
ENCODING 7924
SWIDTH 576 0
DWIDTH 8 0
BBX 8 13 2 -3
BITMAP
C3
42
44
48
28
30
20
20
20
20
00
00
60
ENDCHAR
STARTCHAR 1EF5
ENCODING 7925
SWIDTH 432 0
DWIDTH 6 0
BBX 8 10 0 -3
BITMAP
23
22
24
24
38
18
10
30
20
CC
ENDCHAR
STARTCHAR 1EF6
ENCODING 7926
SWIDTH 576 0
DWIDTH 8 0
BBX 8 13 2 0
BITMAP
1C
04
08
C3
42
44
48
28
30
20
20
20
20
ENDCHAR
STARTCHAR 1EF7
ENCODING 7927
SWIDTH 432 0
DWIDTH 6 0
BBX 8 14 0 -3
BITMAP
0C
02
04
00
23
22
24
24
38
18
10
30
20
C0
ENDCHAR
STARTCHAR 1EF8
ENCODING 7928
SWIDTH 576 0
DWIDTH 8 0
BBX 8 13 2 0
BITMAP
12
2C
00
C3
42
44
48
28
30
20
20
20
20
ENDCHAR
STARTCHAR 1EF9
ENCODING 7929
SWIDTH 432 0
DWIDTH 6 0
BBX 8 13 0 -3
BITMAP
1E
00
00
23
22
24
24
38
18
10
30
20
C0
ENDCHAR
STARTCHAR 2013
ENCODING 8211
SWIDTH 648 0
DWIDTH 9 0
BBX 6 1 2 4
BITMAP
FC
ENDCHAR
STARTCHAR 2014
ENCODING 8212
SWIDTH 720 0
DWIDTH 10 0
BBX 8 1 2 4
BITMAP
FF
ENDCHAR
STARTCHAR 2018
ENCODING 8216
SWIDTH 288 0
DWIDTH 4 0
BBX 2 3 2 7
BITMAP
C0
80
C0
ENDCHAR
STARTCHAR 2019
ENCODING 8217
SWIDTH 216 0
DWIDTH 3 0
BBX 2 3 1 7
BITMAP
C0
40
80
ENDCHAR
STARTCHAR 201A
ENCODING 8218
SWIDTH 288 0
DWIDTH 4 0
BBX 2 3 1 -2
BITMAP
C0
40
80
ENDCHAR
STARTCHAR 201C
ENCODING 8220
SWIDTH 504 0
DWIDTH 7 0
BBX 5 3 2 7
BITMAP
58
90
D8
ENDCHAR
STARTCHAR 201D
ENCODING 8221
SWIDTH 576 0
DWIDTH 8 0
BBX 5 3 2 7
BITMAP
D8
48
D0
ENDCHAR
STARTCHAR 201E
ENCODING 8222
SWIDTH 504 0
DWIDTH 7 0
BBX 5 3 1 -2
BITMAP
D8
48
90
ENDCHAR
STARTCHAR 2020
ENCODING 8224
SWIDTH 576 0
DWIDTH 8 0
BBX 6 13 2 -3
BITMAP
10
10
10
FC
20
20
20
20
20
20
40
40
40
ENDCHAR
STARTCHAR 2021
ENCODING 8225
SWIDTH 576 0
DWIDTH 8 0
BBX 7 13 1 -3
BITMAP
08
08
08
7E
10
10
10
10
10
10
FC
20
20
ENDCHAR
STARTCHAR 2022
ENCODING 8226
SWIDTH 360 0
DWIDTH 5 0
BBX 3 3 2 4
BITMAP
40
E0
C0
ENDCHAR
STARTCHAR 2026
ENCODING 8230
SWIDTH 792 0
DWIDTH 11 0
BBX 9 2 1 0
BITMAP
0800
C980
ENDCHAR
STARTCHAR 2030
ENCODING 8240
SWIDTH 1152 0
DWIDTH 16 0
BBX 14 10 2 0
BITMAP
6100
9100
A200
E400
0C00
0800
118C
2294
2294
439C
ENDCHAR
STARTCHAR 2039
ENCODING 8249
SWIDTH 360 0
DWIDTH 5 0
BBX 4 6 1 1
BITMAP
10
20
C0
40
20
10
ENDCHAR
STARTCHAR 203A
ENCODING 8250
SWIDTH 360 0
DWIDTH 5 0
BBX 4 6 1 1
BITMAP
60
20
10
20
40
80
ENDCHAR
STARTCHAR 2044
ENCODING 8260
SWIDTH 432 0
DWIDTH 6 0
BBX 8 10 0 0
BITMAP
01
02
02
04
08
10
30
20
40
80
ENDCHAR
STARTCHAR 2070
ENCODING 8304
SWIDTH 288 0
DWIDTH 4 0
BBX 4 6 2 5
BITMAP
20
D0
90
90
A0
C0
ENDCHAR
STARTCHAR 2074
ENCODING 8308
SWIDTH 288 0
DWIDTH 4 0
BBX 4 5 1 5
BITMAP
10
30
50
90
70
ENDCHAR
STARTCHAR 2075
ENCODING 8309
SWIDTH 288 0
DWIDTH 4 0
BBX 4 6 2 5
BITMAP
F0
80
E0
20
20
C0
ENDCHAR
STARTCHAR 2076
ENCODING 8310
SWIDTH 288 0
DWIDTH 4 0
BBX 3 6 2 5
BITMAP
20
40
E0
A0
A0
C0
ENDCHAR
STARTCHAR 2077
ENCODING 8311
SWIDTH 288 0
DWIDTH 4 0
BBX 4 6 2 5
BITMAP
F0
20
20
40
80
80
ENDCHAR
STARTCHAR 2078
ENCODING 8312
SWIDTH 288 0
DWIDTH 4 0
BBX 5 6 1 5
BITMAP
30
48
50
70
90
60
ENDCHAR
STARTCHAR 2079
ENCODING 8313
SWIDTH 288 0
DWIDTH 4 0
BBX 3 5 2 5
BITMAP
40
A0
A0
E0
40
ENDCHAR
STARTCHAR 2080
ENCODING 8320
SWIDTH 288 0
DWIDTH 4 0
BBX 4 5 0 -3
BITMAP
70
50
90
90
E0
ENDCHAR
STARTCHAR 2081
ENCODING 8321
SWIDTH 216 0
DWIDTH 3 0
BBX 3 6 0 -4
BITMAP
40
C0
40
40
40
E0
ENDCHAR
STARTCHAR 2082
ENCODING 8322
SWIDTH 288 0
DWIDTH 4 0
BBX 4 6 0 -4
BITMAP
60
10
10
60
80
E0
ENDCHAR
STARTCHAR 2083
ENCODING 8323
SWIDTH 288 0
DWIDTH 4 0
BBX 4 6 0 -4
BITMAP
70
10
20
10
A0
40
ENDCHAR
STARTCHAR 2084
ENCODING 8324
SWIDTH 288 0
DWIDTH 4 0
BBX 4 6 0 -4
BITMAP
10
30
60
A0
60
20
ENDCHAR
STARTCHAR 2085
ENCODING 8325
SWIDTH 288 0
DWIDTH 4 0
BBX 4 6 0 -4
BITMAP
70
80
F0
10
A0
40
ENDCHAR
STARTCHAR 2086
ENCODING 8326
SWIDTH 288 0
DWIDTH 4 0
BBX 4 6 0 -4
BITMAP
20
40
60
90
A0
40
ENDCHAR
STARTCHAR 2087
ENCODING 8327
SWIDTH 288 0
DWIDTH 4 0
BBX 4 6 0 -4
BITMAP
70
10
20
40
40
80
ENDCHAR
STARTCHAR 2088
ENCODING 8328
SWIDTH 288 0
DWIDTH 4 0
BBX 4 6 0 -4
BITMAP
70
90
60
90
90
60
ENDCHAR
STARTCHAR 2089
ENCODING 8329
SWIDTH 288 0
DWIDTH 4 0
BBX 4 6 0 -4
BITMAP
70
90
90
60
20
40
ENDCHAR
STARTCHAR 20AB
ENCODING 8363
SWIDTH 576 0
DWIDTH 8 0
BBX 9 11 1 0
BITMAP
0100
0780
3B00
6600
4200
C200
C200
4600
3E00
0000
FC00
ENDCHAR
STARTCHAR 20AC
ENCODING 8364
SWIDTH 648 0
DWIDTH 9 0
BBX 9 10 1 0
BITMAP
0600
1B80
3080
2080
F800
4000
F800
4100
2300
3E00
ENDCHAR
STARTCHAR 2122
ENCODING 8482
SWIDTH 360 0
DWIDTH 5 0
BBX 5 3 2 7
BITMAP
E8
D0
80
ENDCHAR
STARTCHAR 215B
ENCODING 8539
SWIDTH 864 0
DWIDTH 12 0
BBX 11 10 1 0
BITMAP
2040
6080
2080
2100
E200
0460
0CA0
0860
11A0
20E0
ENDCHAR
STARTCHAR 215C
ENCODING 8540
SWIDTH 792 0
DWIDTH 11 0
BBX 10 10 2 0
BITMAP
6080
A100
6200
2200
E400
09C0
1240
3180
2240
4380
ENDCHAR
STARTCHAR 215D
ENCODING 8541
SWIDTH 864 0
DWIDTH 12 0
BBX 10 10 2 0
BITMAP
E080
8100
E300
2200
E400
08C0
1140
10C0
2340
41C0
ENDCHAR
STARTCHAR 215E
ENCODING 8542
SWIDTH 864 0
DWIDTH 12 0
BBX 10 10 2 0
BITMAP
E080
2100
4300
4200
8400
08C0
1140
10C0
2140
41C0
ENDCHAR
STARTCHAR 2212
ENCODING 8722
SWIDTH 576 0
DWIDTH 8 0
BBX 6 1 2 4
BITMAP
FC
ENDCHAR
STARTCHAR 2215
ENCODING 8725
SWIDTH 504 0
DWIDTH 7 0
BBX 7 10 1 0
BITMAP
02
06
04
08
18
10
20
60
40
80
ENDCHAR
STARTCHAR 2248
ENCODING 8776
SWIDTH 504 0
DWIDTH 7 0
BBX 6 5 2 2
BITMAP
64
98
00
48
B0
ENDCHAR
STARTCHAR 2260
ENCODING 8800
SWIDTH 720 0
DWIDTH 10 0
BBX 7 9 2 0
BITMAP
02
02
04
7E
10
10
FE
40
80
ENDCHAR
STARTCHAR 2264
ENCODING 8804
SWIDTH 576 0
DWIDTH 8 0
BBX 7 8 1 0
BITMAP
06
18
20
30
0C
00
00
FC
ENDCHAR
STARTCHAR 2265
ENCODING 8805
SWIDTH 576 0
DWIDTH 8 0
BBX 7 8 1 0
BITMAP
30
18
06
0C
30
40
00
FC
ENDCHAR
ENDFONT
